/* XPM */
static char *f3fe7da239fd42c3c5c606dbdc58901cfRgY6iy7t8Bul8o2[] = {
/* columns rows colors chars-per-pixel */
"32 32 116 2 ",
"   c #00101C",
".  c #011722",
"X  c #001822",
"o  c #001C24",
"O  c #001C25",
"+  c #021E26",
"@  c #021F27",
"#  c #002027",
"$  c #02232A",
"%  c #052329",
"&  c #002429",
"*  c #062428",
"=  c #01272C",
"-  c #02262C",
";  c #08252A",
":  c #09252A",
">  c #02282D",
",  c #04282C",
"<  c #05292E",
"1  c #06292E",
"2  c #072A2F",
"3  c #052C2F",
"4  c #073132",
"5  c #073434",
"6  c #083636",
"7  c #093636",
"8  c #0B3C3B",
"9  c #0B3F3C",
"0  c #0B403D",
"q  c #0C423F",
"w  c #0C4440",
"e  c #0D4642",
"r  c #0F4A44",
"t  c #104C46",
"y  c #11514A",
"u  c #13564C",
"i  c #14594E",
"p  c #145A50",
"a  c #145B51",
"s  c #165E52",
"d  c #176255",
"f  c #176456",
"g  c #1A6A5B",
"h  c #196C5C",
"j  c #1A6D5C",
"k  c #1A6D5D",
"l  c #1C725F",
"z  c #1C7260",
"x  c #1F7A66",
"c  c #207E68",
"v  c #227F6A",
"b  c #21816A",
"n  c #22836C",
"m  c #21846C",
"M  c #23896F",
"N  c #238970",
"B  c #289779",
"V  c #29997C",
"C  c #2DA583",
"Z  c #2EA986",
"A  c #2FAB89",
"S  c #30AB8A",
"D  c #31AF8C",
"F  c #30B08B",
"G  c #32B38C",
"H  c #33B78F",
"J  c #33B992",
"K  c #36BD95",
"L  c #788588",
"P  c #7B8789",
"I  c #7D898C",
"U  c #36C296",
"Y  c #36C297",
"T  c #37C498",
"R  c #38C399",
"E  c #38C499",
"W  c #38C99B",
"Q  c #38C99C",
"!  c #39CC9D",
"~  c #3ACE9F",
"^  c #3CD4A3",
"/  c #3DD4A3",
"(  c #3DD4A6",
")  c #3DD9A6",
"_  c #3EDCA7",
"`  c #40DAAC",
"'  c #40E2AD",
"]  c #42E1AF",
"[  c #42E7B0",
"{  c #43E4B2",
"}  c #43E8B1",
"|  c #43ECB3",
" . c #44EAB5",
".. c #44EEB4",
"X. c #45F1B6",
"o. c #46F3B8",
"O. c #45F4B8",
"+. c #47F4B9",
"@. c #47F5BA",
"#. c #46F8B8",
"$. c #46F9B8",
"%. c #46F9B9",
"&. c #47FABB",
"*. c #46FCBA",
"=. c #47FDBC",
"-. c #48FDBB",
";. c #48F8BC",
":. c #48FFBE",
">. c #49FFC0",
",. c #4BFFC2",
"<. c #4BFFC3",
"1. c #4BFFC4",
"2. c #4CFFC6",
"3. c #4CFFC7",
"4. c #4EFFCB",
"5. c #4FFFCE",
/* pixels */
"P * > < , < , < < < > < < < < < * > < > < < > < < < < < * > * L ",
"* & & < , & , , < & & > > & > < > > > & < & & > > & > < > > & & ",
"< = = = , , , & < > > & & & > & & , > > > > > > & & > & > > > & ",
"< > = = & > > > & > > > < > > > > , , , > & > & < > > > > > & < ",
"< = = < > > & < > > > & O O > > > > & $ $ & > < > > , , > > > < ",
"2 & > & > = > = & , < O a l $ < , , $ 0 3 O > < & > & > , & , , ",
"2 = = > = < & < > > O 7 { j O & & # 8 } ( i X & > > > > , > , , ",
"< = < & > & > = > & X F S X = = & O G 2.,.@.u O & > & , , > & , ",
"2 - = = > > , & X   f { 4 # , = . j 1.&.$.<.~ $ = - > = < = < , ",
"2 = < - & < O a S C [ g X , & & 4 ' <.$.$.$.$.r O > & < & > & , ",
"2 & = - = = X b 4.5.S X > > & X C 1.&.$.$.$.:.f O = < = < = > < ",
"2 $ > - = > X x 2.} 7 # < & O a <.$.$.$.$.&.1.d O = & > & > & < ",
"2 > > = > & . c 4.l . & > $ < ) =.$.$.$.$.$.@.e @ = < = > & > < ",
"2 & > & = < O N E O , , & . B 2.$.$.$.&.$.4.J O = > & > = < & < ",
"2 & < , > = O j t O < > O y ;.-.$.&.$.&.&.Y 7 * = = < & < = > < ",
"2 > > , & < > < & & > & & ~ ,.$.$.$.$.=.@.v O O < = = > & > & < ",
"< > & , = > < & & > & X M <.$.$.&.$.$.&.*.,.J < $ $ & > > > > < ",
"2 & > < < > & > > < O e X.:.$.*.>.>.>.>.,.-.2.V X , > > > & & < ",
"2 > & > = = > > > & O Y <.$.$.@.Y Q Q Q T _ :.X.9 $ , > & > > < ",
"< & < > & > & > > X x 1.$.$.,.b X $ $ $ # W :.<.j X , & < > & < ",
"2 > , , > & > < O 8 ..:.@.<.T O $ = & X m 4.$.<.b X & > > > & < ",
"2 > > & < & > & O J 4.:.1.@.r o = = O r @.*.$.<.j O > < & < > < ",
"< > > > > > & X l ;./ / ` m . , = $ $ T <.$.:.O.0 # > & > > & < ",
"2 & & , > & * 8  .l O , < & & < = . x <.$.$.2.Z X > < & > & > < ",
"2 > < & > & X N K O % $ $ & & > O 9 ..*.*.2.( 5 $ , > & < > > < ",
"3 & > & > < + j e # = = = = < & & E 4.<.@.S 5 O > & > > > & & < ",
"2 = - < & < = = O > & < = > < & 8 N m l q O & < > & > & & > > < ",
"2 = = = > = = = < = > > < & & > > X X X * & & > > , > > < > & < ",
"2 = & < < < & > < & > > > < < & , > > , & > > < & > & , > > & < ",
"< & > = & > < > = - < & , & > < & > & , > < > & < > > < & < > > ",
"* & > = , > $ & = = & > $ & = = $ = & > > & & & & > > & > & & $ ",
"I : < < < 2 < < 2 2 3 2 3 < 2 2 < 2 3 3 2 2 2 2 2 < 2 < < < ; P "
};
