/* XPM */
static char *_fe365d554bc4d04d26406f86932eb9aw9Lk2Eiv2sHD5sW1[] = {
/* columns rows colors chars-per-pixel */
"64 64 82 1 ",
"  c #000C19",
". c #001219",
"X c #001721",
"o c #001B24",
"O c #002127",
"+ c #02272C",
"@ c #052A2F",
"# c #052E31",
"$ c #0E2E33",
"% c #073233",
"& c #083737",
"* c #0A3C3B",
"= c #143136",
"- c #183136",
"; c #1B353A",
": c #0C413D",
"> c #0D4541",
", c #0E4A44",
"< c #104E47",
"1 c #12544B",
"2 c #14594E",
"3 c #155E52",
"4 c #166355",
"5 c #186557",
"6 c #186658",
"7 c #1A6D5C",
"8 c #1B705E",
"9 c #1D7461",
"0 c #1F7B65",
"q c #207F68",
"w c #21836B",
"e c #23886F",
"r c #248D72",
"t c #269376",
"y c #289579",
"u c #279878",
"i c #299B7C",
"p c #2CA582",
"a c #2DA985",
"s c #2FAD88",
"d c #32B58D",
"f c #35BF95",
"g c #7E8C8E",
"h c #36C297",
"j c #37C599",
"k c #39C69C",
"l c #39CC9D",
"z c #3AD09F",
"x c #3BD4A3",
"c c #3DDAA7",
"v c #3EDDA9",
"b c #41E4AE",
"n c #42E6B1",
"m c #43ECB3",
"M c #44E9B4",
"N c #43EDB4",
"B c #45F1B7",
"V c #44F3B6",
"C c #46F4B9",
"Z c #46F7B9",
"A c #47F4BB",
"S c #48F6BE",
"D c #46F9B8",
"F c #47FABA",
"G c #46FCBA",
"H c #47FCBB",
"J c #47FBBC",
"K c #47FEBD",
"L c #48FABD",
"P c #49FFBE",
"I c #4AFCC1",
"U c #49FFC0",
"Y c #4BFFC4",
"T c #4CFFC5",
"R c #4EFFCB",
"E c #4FFFCC",
"W c #51FFCF",
"Q c #818E91",
"! c #828E90",
"~ c #839093",
"^ c #859294",
"/ c gray99",
/* pixels */
"/!-+@@@@@@@@@@@@##@@@@@@@+@@@@@@@@@@@@@@##@@@@@@@@@@@@#@@@+@+-g/",
"~.O++++++++++++++++++++++++++++++++++++++++++++++++++++++++++O.g",
";O++++++++++++++++++++++++++@++++++++++++++++++++++++@++++++++O=",
"#+++@++++++++++++++@++++++++++++++++++++++++++++++++++++++++++++",
"$++++++++++++++++++++@++++++++++++++++++++++@+++++++@++++++++++#",
"$+++++++++@+++++++++++++++++++++++@++++++++@+++++++++++++++++++#",
"$O++++++++++++++++++++++++@++++++++++++++++++++++++++++++++++++@",
"$+++++++++++++++++++++++++++@++++++++++++++++++++++++++++++++++@",
"$+++@+++++++@++++++++++++++++++++++++++++++++++++++++++++++++++#",
"$+@+++++@++++++++++++++++O+++++++++++++++++++++++@++++++++++++O#",
"$+++++++++++++++++++++++++%%++++@++++#Oo+++++++++++++++++@+++++#",
"%O+++++++++++@+++@++++++#lM7o++++++++o>7%X++++++++++++#+++++@+O@",
"$O+++++++++@+++++++++++XpWk++++++++++OhRvr@o+++++++++++++++++++#",
"$++++++@++++++++++++++o2IS,o++++++++X0YDPYl>o+++++++++++++++++++",
"%O+++++@++++++@++++++++cErX+++@++++O*mPDZDYv:o+++++++++++++++++#",
"$+@++++++++++++++++++XyWl+O++++++++ofIZDDDDYl++++++#+++++++++++@",
"$+++++++++++++++++++o<LL2o++++++++X7PHDGJDDKT9o++++++++++#+++++#",
"$++++++++++++++ooooXOlEio+++++++++%bKZZZDDDDIx+++++++++++++++++@",
"$++++++++++++++13332uRc@O++++++++XaIZDGDDDDDHK,O+++++++++++++++@",
"$O+++++@+++++++xRIIIPI3o++++++++X4IHDDZZZJDDDI0X+++++++++++++++@",
"$++++++++++++++lIDHHIpX++++++++o#cIDZGDDDJZDDYuo+++++++++++++++@",
"$++++++++++++++lPDDIb%O++#+++++XuYHDZHZGDDDDDYpX+++++++++++++++@",
"$+++++++++++++OlKDHI7o++++++++o1JKDDHZZHHZJZDIpo++++#+++++@++++@",
"%O+++@+++++++++lIDIdo++++++++++lIJDDZZHZZZZZDItX@++++++++++++++@",
"$+++++++++++++OlIKN*O++++++++XrYDDZHZZHZDDJDDY7o@++++++++++++++#",
"$++++++@+++++++lKY0X+++++@++o,ZKDDZZZHHZDZZDKV>O+++++++++++++++@",
"$O++++++++++++OlTho+++++++++OjYDDDDZDGZGDLDDIdo+++++++@++++++++@",
"$++++++@+@+++++xS>o++++++++X0YDDJDJZZZZDDDDPJ,o+++++++++++@++++@",
"$+++++++++++++OcrX++++++++o*NPZDDGDGGZGDZDPTqo+++++++++++++++++@",
"%O++++++++++++#p#+++++++++XfYDJDZZZZDZGZFFn9o+++++++++++@++++++@",
"$++++++++++@++@%O++++++++o9IJDDDGDGDGZDZPv1 o++++++++++++++++++@",
"$++++++++++++++O+++++@++O%bPDDJDZZZZDDGZFZni&o++#++++++++++++++@",
"%+++++++++++++++++++++++osYZZJDJGDGDZZZGJZKYc,o+++++++#++++++++#",
"$++++++++++++++++++++++X4IDZDDDDGZZZGDZDDDDDYn:o+++++++++++++++#",
"$+++++++@++++++@++++++O#cIDJDDDDDGDDZDGDJDDDZYl+++++++++++++++++",
"$++++@@++++@++++++++++XiYDDDZJDDZZZGGGZZDDDDZDYwo++++++++++++++#",
"$+++++++++++++++@++++o1SKDDDDJZKYIIYKPIIIIIDZDIv#O+++++++++++++@",
"$O++++++++++++++++++O+xPDDJDDDPcpaaaaaaaapaVKHDI6o+++++++++++++@",
"$+++++++++@++@++++++XrYHZZZDDJS<.oooooooo 5JDZDYpo++++@++++++++@",
"$+++@++++++++++++++O,ZKZZJDDDYto++++++++O&nKDHDIfo+++++++++++++@",
"$O++++++++++++++++OOjYDDDDJDIx#o++++++++osIDZHZKx++++++++++++++#",
"$++++++++++@++++++XqTDDDDJDKK2o++++++++o5IKDHZZHl++++++++++++++@",
"$O+++++++++++++++O:NKZJDDDDYpo++++++++o#vIDDKZDIfo+++++++@+++++@",
"$++++@+++++++++@+ofIDJDDDDIv#o++@+++++opYJDDDDDIpo+++++@+++++++@",
"%++@++++++++++++X8IPIIIIIYY6o+@++++++o3LHDJZDDZI7o+++++++@+++++@",
"$+++++++++@++++O*bTxfhhjjkyo+++++++#O+xIDDDDJDKm&o+++++++++++++@",
"$O+++++@+++++++XaRv%oOOOoOo+++++++++XtYDDDDDZDYio++++++++++++++@",
"$+++++++++++++o5IP6X+++++++++++++++o<SJDDJDJZIn%o++++++++++++++@",
"$O+++++++++++++jEso++++++++++++++++OlYDJDDDDPI6o#++++++++++++++$",
"$++++++++@+++++cV&o+++++++++++++++.eYDDDJDDPP0X+++++++++++++++++",
"$+++++++++++++Oc0X++++++++++++++#o:VKDDDDPYn6X+++++++++#++@++++#",
"$+++++++++++++#r+++++++#+++++++++OjEKIIIImi*o++++++++++++++++++@",
"$+++++++++++++@@++++++++++++++++o6nccxha9&oO@++++++++++++++++++@",
"%O@++++++++++++++#++++++#+++++#++%###+OooO+++++++++++++++++++++@",
"$O+++++@++++++++++++++++++++++++++O+++++++++++++#++++++++++++++@",
"$+++++++++++++++++++++@++++++++++++++++++++++++++++++++++++++++@",
"%+++++++++++++++++++++++++++++++++++++++++++++@++++++++++++++++@",
"$+++++++++++++++++++++++++++++++++++++++++++++++++#+++++++++#++@",
"$++++++++++++#+++++++++++++++++++++++++++++++++++++++++++++++++@",
"$+++++++@+++++++++++++++++#++++++++++@+++++++++++++++++++++++++@",
"$++++++++++++++++++++++++++++++++#++++++++++++++++++++++@+++++++",
"-O+++++++++++++++++++++++++++++++++++++++++++++++++++++++++++++-",
"^.O++O+++O++O++++++O++++O+++++O+O++OO+++O++++++O+++++O+++OO++O !",
"/^;@$$$$$$$$$$$$$$$$$$$$$$$$$$$$$$$$$$$$$$$$$$$$$$$$$$$$$$$$#;!/"
};
