/* XPM */
static char *_d69f0fc3c68477d8f17d5267bcc278el2bubMu0leVtHUrw[] = {
/* columns rows colors chars-per-pixel */
"16 16 61 1 ",
"  c #000A18",
". c #00101C",
"X c #00121D",
"o c #00141F",
"O c #001420",
"+ c #001A23",
"@ c #001C24",
"# c #011E26",
"$ c #002026",
"% c #002228",
"& c #00242A",
"* c #02272C",
"= c #03272C",
"- c #02282C",
"; c #03282D",
": c #04282D",
"> c #042B2E",
", c #062E31",
"< c #073132",
"1 c #073435",
"2 c #083234",
"3 c #093A39",
"4 c #213E42",
"5 c #0E4743",
"6 c #12534B",
"7 c #13554C",
"8 c #13574E",
"9 c #14574E",
"0 c #15584F",
"q c #155D52",
"w c #176155",
"e c #19695A",
"r c #1C6E5D",
"t c #1C6C5E",
"y c #1E7663",
"u c #21836B",
"i c #22836C",
"p c #258D72",
"a c #299479",
"s c #299A7B",
"d c #2B9C7D",
"f c #2CA482",
"g c #2EA785",
"h c #30AD88",
"j c #31B38C",
"k c #38C79C",
"l c #3ACE9E",
"z c #3DD7A4",
"x c #3DD8A5",
"c c #41DDAE",
"v c #40E1AC",
"b c #46FAB9",
"n c #47FBBA",
"m c #49FCBF",
"M c #48FEBE",
"N c #4AF8C1",
"B c #4BFEC3",
"V c #4BFFC4",
"C c #4CFCC7",
"Z c #4DFFC8",
"A c #50FFCE",
/* pixels */
"4&:;:;;;*;::;;&4",
"&*;&;&%;*&&;;-;$",
"::;;;&5;&;:$;;&;",
":&-&X8i##jk<$;;;",
":;&1td,oeBZp#;-;",
":-#0C7o<vMBj+&-;",
":;#wa++fVbBu+-&:",
":&&3<oqmbml;$;;:",
":**&&:xBVBma#&-;",
":***oaZzythm5#-;",
":**+8ZV9 #lB7#&:",
":*%2gpe$+sAc,&;;",
":*%68X@#8Nc0#--;",
":***&;-$58,#-&-;",
"&**&&;;&%#$;-:&&",
"4&:::::::;::::&4"
};
